<?xml version="1.0" standalone="no"?>
<!DOCTYPE svg PUBLIC "-//W3C//DTD SVG 20010904//EN"
 "http://www.w3.org/TR/2001/REC-SVG-20010904/DTD/svg10.dtd">
<svg version="1.0" xmlns="http://www.w3.org/2000/svg"
 width="675.000000pt" height="650.000000pt" viewBox="0 0 675.000000 650.000000"
 preserveAspectRatio="xMidYMid meet">

<g transform="translate(0.000000,650.000000) scale(0.100000,-0.100000)"
fill="#000000" stroke="none">
<path d="M2080 5250 c-635 -402 -1160 -739 -1166 -750 -7 -13 -8 -39 -3 -73 4
-28 15 -563 24 -1187 9 -624 18 -1140 20 -1146 2 -7 16 -18 32 -26 15 -8 518
-349 1118 -758 600 -409 1099 -745 1111 -747 15 -4 165 90 520 325 274 182
785 520 1134 750 l635 420 3 84 c57 1596 78 2305 68 2320 -6 10 -517 347
-1136 749 -619 402 -1134 740 -1146 750 -11 10 -29 19 -40 19 -10 0 -539 -329
-1174 -730z m1116 3 c-4 -329 -9 -632 -12 -674 l-6 -77 -996 5 c-549 3 -1014
8 -1036 12 -38 6 -24 15 1005 668 574 363 1046 662 1048 662 2 1 1 -268 -3
-596z m952 39 c1207 -787 1216 -793 1222 -799 5 -6 -2083 6 -2089 12 -2 2 0
304 4 670 6 559 10 665 21 661 8 -3 386 -248 842 -544z m-1020 -887 c3 -3
-1081 -1858 -1095 -1875 -2 -2 -81 -4 -175 -4 l-171 -1 -38 110 c-20 61 -148
430 -284 820 -136 391 -267 768 -291 839 l-44 129 1048 -7 c576 -4 1048 -9
1050 -11z m2060 -9 c134 -3 245 -6 247 -8 2 -2 -139 -422 -314 -933 l-318
-930 -176 0 -176 0 -428 720 c-235 396 -487 820 -559 942 l-132 222 806 -5
c444 -2 917 -6 1050 -8z m-1403 -936 c290 -492 593 -1005 672 -1139 79 -134
142 -246 139 -248 -4 -4 -2698 15 -2702 20 -1 1 300 518 669 1150 578 990 671
1145 682 1130 6 -10 250 -421 540 -913z m1674 -5 c-15 -423 -29 -806 -31 -850
l-3 -79 -257 -1 c-142 0 -258 1 -258 3 0 7 574 1701 575 1699 1 -1 -11 -348
-26 -772z m-4158 -110 c154 -445 279 -812 279 -815 0 -6 -528 -6 -534 1 -2 2
-9 297 -15 654 -6 358 -13 729 -16 825 -2 96 -2 168 2 160 3 -8 131 -379 284
-825z"/>
</g>
</svg>
